<?xml version="1.0" encoding="UTF-8" standalone="no"?>
<!DOCTYPE svg PUBLIC "-//W3C//DTD SVG 1.1//EN" "http://www.w3.org/Graphics/SVG/1.1/DTD/svg11.dtd">
<svg width="100%" height="100%" viewBox="0 0 1233 1233" version="1.1" xmlns="http://www.w3.org/2000/svg" xmlns:xlink="http://www.w3.org/1999/xlink" xml:space="preserve" xmlns:serif="http://www.serif.com/" style="fill-rule:evenodd;clip-rule:evenodd;stroke-linejoin:round;stroke-miterlimit:2;">
    <g transform="matrix(1,0,0,1,-2578.02875,-7741.650417)">
        <g transform="matrix(4.166667,0,0,4.166667,0,0)">
            <g transform="matrix(1,0,0,1,756.1342,2015.5787)">
                <path d="M0,69.779C26.846,73.571 53.048,77.27 79.442,73.203C54.492,63 32.672,47.389 11.519,32.249C8.434,30.038 5.256,27.759 2.132,25.553C-20.416,9.593 -46.917,-7.85 -76.087,-12.939C-96.085,-16.422 -120.911,-12.964 -137.407,1.228L-137.407,86.201C-122.076,76.696 -105.88,70.388 -88.589,67.161C-58.452,61.521 -28.742,65.716 0,69.779" style="fill-rule:nonzero;"/>
            </g>
        </g>
        <g transform="matrix(4.166667,0,0,4.166667,0,0)">
            <g transform="matrix(1,0,0,1,850.9023,2028.5518)">
                <path d="M0,37.633C18.038,44.201 38.247,40.595 52.989,28.314C56.536,25.352 60.107,22.145 63.693,18.696L63.693,-6.568C61.463,-4.77 59.139,-2.997 56.722,-1.287C38.483,11.662 15.877,21.172 -6.921,25.48C-11.996,26.448 -17.056,27.145 -22.086,27.592C-15.027,31.404 -7.806,34.769 -0.3,37.53C-0.206,37.564 -0.098,37.603 0,37.633" style="fill-rule:nonzero;"/>
            </g>
        </g>
        <g transform="matrix(4.166667,0,0,4.166667,0,0)">
            <g transform="matrix(1,0,0,1,851.4919,2123.3353)">
                <path d="M0,-10.464C-34.499,-2.501 -67.333,-7.143 -99.086,-11.628C-146.917,-18.388 -189.197,-24.346 -232.765,11.022L-232.765,30.52L63.103,30.52L63.103,-40.984C43.209,-25.692 22.297,-15.597 0,-10.464" style="fill-rule:nonzero;"/>
            </g>
        </g>
        <g transform="matrix(4.166667,0,0,4.166667,0,0)">
            <g transform="matrix(1,0,0,1,649.9695,1894.0481)">
                <path d="M0,81.765C-6.381,82.635 -12.62,84.054 -18.554,86.004C-22.995,87.454 -27.229,89.192 -31.242,91.187L-31.242,-36.052L264.626,-36.052L264.626,89.59C259.262,97.312 251.431,104.509 242.245,111.519C239.499,113.616 236.537,115.734 233.384,117.817L233.384,-7.329L0,-7.329L0,81.765Z" style="fill-rule:nonzero;"/>
            </g>
        </g>
    </g>
</svg>
